<?xml version="1.0" standalone="no"?>
<!DOCTYPE svg PUBLIC "-//W3C//DTD SVG 1.1//EN" "http://www.w3.org/Graphics/SVG/1.1/DTD/svg11.dtd" >
<svg xmlns="http://www.w3.org/2000/svg" xmlns:xlink="http://www.w3.org/1999/xlink" version="1.1" viewBox="-10 0 272 256">
   <path fill="currentColor"
d="M99 11q-2 -1 -2 -2q1 -1 3 -1q12 3 28 16q41 -5 62 3q5 2 16 12q2 2 4 3q2 3 1 6q-2 3 -5 1q-6 -5 -18 -3q-14 3 -28 5q-12 2 -16 2q-8 1 0 -2q28 -6 46 -13q3 -1 3 -3q0 -1 -3 -3q-20 -8 -58 -3q3 8 2 14q-1 8 -10 0l-4 -2q-7 -6 -14 -8q-2 1 -5 2q-13 4 -18 4
q-1 1 -2 1q-4 3 -7 1q-2 0 -2 -1t2 -2q5 -1 11 -3l18 -6q-3 -1 -2 -2l4 -1q6 1 7 -1q1 0 -2 -5q-1 -3 -11 -9zM143 163q-4 3 -12 7l-8 4q-7 3 -2 -1q10 -6 19 -15q-8 -9 -20 -6q-6 0 -2 -3l1 -1q7 -3 12 -4q2 0 7 6q2 2 6 5l6 -6q6 -5 11 -11q4 -5 1 -7q-3 0 -2 -1
q0 -1 3 -2q10 -4 14 -1q3 1 -1 5q-4 5 -13 14l-5 5q-6 5 -12 8q22 31 44 46q3 2 14 3q3 1 8 2q19 1 38 8q2 0 1 1q-2 1 -4 1q-2 -1 -6 -1q-16 -2 -32 -1q-11 0 -20 -8q-25 -19 -46 -47zM100 208q0 2 1 3t4 0q7 -6 20 -18l9 -9q3 -3 5 -3q1 1 -2 5q-8 8 -21 22q-5 6 -7 9
q-5 5 -7 5t-3 -5q-9 -18 0 -61v-7q1 -8 1 -12q-2 -5 2 -1q5 7 6 14q-14 32 -8 58zM158 115h1q5 -1 7 -4q3 -5 12 -1q7 2 17 7q2 5 -5 4q-13 -5 -31 -2q-37 7 -58 14q-8 4 -17 -1q-3 -1 0 -2q10 -1 42 -8q20 -4 32 -7zM154 59q5 -5 13 0t9 6q3 2 2 4t-4 1q-15 -4 -33 0
q-7 2 -12 3q-19 3 -28 6q-12 3 -23 0q-4 -1 1 -2q14 0 60 -11q8 -2 15 -7zM85 90q4 11 1 22q-20 87 -47 102q-6 3 -8 2q0 -1 6 -5q21 -15 37 -65q5 -19 7 -33t0 -22q-1 -2 0 -3q2 0 4 2zM147 89q3 -6 10 -4t10 3q2 1 1 4q-1 1 -3 1q-13 1 -49 12h-3q-9 2 -16 0q-4 0 -4 -1
t4 -2q10 1 35 -5q3 -1 5 -2q8 -1 10 -6zM54 52q3 -2 2 2q1 9 10 17q4 4 -2 8q-5 4 -8 -1q-13 -16 -2 -26z" />
</svg>
