<?xml version="1.0" encoding="utf-8"?>
<!-- Generator: Adobe Illustrator 21.0.2, SVG Export Plug-In . SVG Version: 6.00 Build 0)  -->
<svg version="1.1" id="圖層_1" xmlns="http://www.w3.org/2000/svg" xmlns:xlink="http://www.w3.org/1999/xlink" x="0px" y="0px"
	 viewBox="0 0 272 256" style="enable-background:new 0 0 272 256;" xml:space="preserve">
<style type="text/css">
	.st0{fill:none;}
	.st1{fill:none;stroke:#000000;stroke-miterlimit:10;}
</style>
<!-- <path d="M109,11c-1.3-0.7-2-1.3-2-2c0.7-0.7,1.7-1,3-1c8,2,17.3,7.3,28,16c27.3-3.3,48-2.3,62,3c3.3,1.3,8.7,5.3,16,12
	c1.3,1.3,2.7,2.3,4,3c1.3,2,1.7,4,1,6c-1.3,2-3,2.3-5,1c-4-3.3-10-4.3-18-3c-9.3,2-18.7,3.7-28,5c-8,1.3-13.3,2-16,2
	c-5.3,0.7-5.3,0,0-2c18.7-4,34-8.3,46-13c2-0.7,3-1.7,3-3c0-0.7-1-1.7-3-3c-13.3-5.3-32.7-6.3-58-3c2,5.3,2.7,10,2,14
	c-0.7,5.3-4,5.3-10,0l-4-2c-4.7-4-9.3-6.7-14-8c-1.3,0.7-3,1.3-5,2c-8.7,2.7-14.7,4-18,4c-0.7,0.7-1.3,1-2,1c-2.7,2-5,2.3-7,1
	c-1.3,0-2-0.3-2-1s0.7-1.3,2-2c3.3-0.7,7-1.7,11-3l18-6c-2-0.7-2.7-1.3-2-2l4-1c4,0.7,6.3,0.3,7-1c0.7,0,0-1.7-2-5
	C119.3,18,115.7,15,109,11z M153,163c-2.7,2-6.7,4.3-12,7l-8,4c-4.7,2-5.3,1.7-2-1c6.7-4,13-9,19-15c-5.3-6-12-8-20-6
	c-4,0-4.7-1-2-3l1-1c4.7-2,8.7-3.3,12-4c1.3,0,3.7,2,7,6c1.3,1.3,3.3,3,6,5l6-6c4-3.3,7.7-7,11-11c2.7-3.3,3-5.7,1-7
	c-2,0-2.7-0.3-2-1c0-0.7,1-1.3,3-2c6.7-2.7,11.3-3,14-1c2,0.7,1.7,2.3-1,5c-2.7,3.3-7,8-13,14l-5,5c-4,3.3-8,6-12,8
	c14.7,20.7,29.3,36,44,46c2,1.3,6.7,2.3,14,3c2,0.7,4.7,1.3,8,2c12.7,0.7,25.3,3.3,38,8c1.3,0,1.7,0.3,1,1c-1.3,0.7-2.7,1-4,1
	c-1.3-0.7-3.3-1-6-1c-10.7-1.3-21.3-1.7-32-1c-7.3,0-14-2.7-20-8C182.3,197.3,167,181.7,153,163z M110,208c0,1.3,0.3,2.3,1,3
	s2,0.7,4,0c4.7-4,11.3-10,20-18l9-9c2-2,3.7-3,5-3c0.7,0.7,0,2.3-2,5c-5.3,5.3-12.3,12.7-21,22c-3.3,4-5.7,7-7,9c-3.3,3.3-5.7,5-7,5
	s-2.3-1.7-3-5c-6-12-6-32.3,0-61v-7c0.7-5.3,1-9.3,1-12c-1.3-3.3-0.7-3.7,2-1c3.3,4.7,5.3,9.3,6,14C108.7,171.3,106,190.7,110,208z
	 M168,115h1c3.3-0.7,5.7-2,7-4c2-3.3,6-3.7,12-1c4.7,1.3,10.3,3.7,17,7c1.3,3.3-0.3,4.7-5,4c-8.7-3.3-19-4-31-2
	c-24.7,4.7-44,9.3-58,14c-5.3,2.7-11,2.3-17-1c-2-0.7-2-1.3,0-2c6.7-0.7,20.7-3.3,42-8C149.3,119.3,160,117,168,115z M164,59
	c3.3-3.3,7.7-3.3,13,0s8.3,5.3,9,6c2,1.3,2.7,2.7,2,4s-2,1.7-4,1c-10-2.7-21-2.7-33,0c-4.7,1.3-8.7,2.3-12,3c-12.7,2-22,4-28,6
	c-8,2-15.7,2-23,0c-2.7-0.7-2.3-1.3,1-2c9.3,0,29.3-3.7,60-11C154.3,64.7,159.3,62.3,164,59z M95,90c2.7,7.3,3,14.7,1,22
	c-13.3,58-29,92-47,102c-4,2-6.7,2.7-8,2c0-0.7,2-2.3,6-5c14-10,26.3-31.7,37-65c3.3-12.7,5.7-23.7,7-33s1.3-16.7,0-22
	c-0.7-1.3-0.7-2.3,0-3C92.3,88,93.7,88.7,95,90z M157,89c2-4,5.3-5.3,10-4s8,2.3,10,3c1.3,0.7,1.7,2,1,4c-0.7,0.7-1.7,1-3,1
	c-8.7,0.7-25,4.7-49,12h-3c-6,1.3-11.3,1.3-16,0c-2.7,0-4-0.3-4-1s1.3-1.3,4-2c6.7,0.7,18.3-1,35-5c2-0.7,3.7-1.3,5-2
	C152.3,94.3,155.7,92.3,157,89z M64,52c2-1.3,2.7-0.7,2,2c0.7,6,4,11.7,10,17c2.7,2.7,2,5.3-2,8c-3.3,2.7-6,2.3-8-1
	C57.3,67.3,56.7,58.7,64,52z"/> -->
<path class="pen line-chen-10" d="M137.7,148.8c7.3,3.3,12.7,9.5,18.2,15.3c11,11.7,22.8,22.6,35.4,32.5c5.4,4.3,11.1,8.4,17.4,11.1
	c6.7,2.9,14.1,4.1,21.3,5.3c5.1,0.8,10.2,1.7,15.3,2.5"/>
<path class="pen line-chen-9" d="M181.8,131.7c-7.9,12.4-18.2,23.2-30.2,31.6c-5.5,3.8-11.3,7.2-16.2,11.7"/>
<path class="pen line-chen-8" d="M111.7,141.4c-0.8,25.1-7.1,50.3-3,75.1c12.3-8.9,23.7-19.1,33.9-30.4"/>
<path class="pen line-chen-7" d="M100.4,130.8c27.9,0.4,53.6-14.9,81.2-18.3c3.7-0.5,7.6-0.7,11.1,0.7"/>
<path class="pen line-chen-6" d="M109.1,104.6c15.7,1,31.7-1.8,46.1-8.2c4.3-1.9,8.5-4.2,12.7-6.3c-0.3-0.1-0.6-0.2-0.9-0.4"/>
<path class="pen line-chen-5" d="M93.6,93.5c1.5,28.3-6.2,56.6-18.8,82.1C67.3,190.7,56.9,206,41,211.7"/>
<path class="pen line-chen-4" d="M90.3,78.6c29.2,1.6,56.8-13.1,85.9-15.5"/>
<path class="pen line-chen-3" d="M89.5,37.2c14.8,1.5,29-5,43.5-8.1c9.1-1.9,18.5-2.5,27.9-2.7c8.2-0.2,16.5,0,24.7,0.4
	c4.5,0.2,9.2,0.6,13.4,2.3s8,5.1,9,9.6c-8.1,0.2-16.2,2-23.7,5.2c-5.5,2.3-10.9,5.5-16.9,5.8"/>
<path class="pen line-chen-2" d="M64.4,55.2c-1,6.8,2.3,14.1,8.2,17.7"/>
<path class="pen line-chen-1" d="M111.9,9.8c6.8,2.2,12.2,7.2,17.4,12.1c1.9,1.8,3.8,3.6,5.3,5.8c1.4,2.2,2.3,4.9,1.8,7.5
	c-0.7,0.4-1.5-0.2-2.1-0.7c-3.8-3.5-8.6-5.8-13.7-6.6"/>
</svg>
