<?xml version="1.0" encoding="utf-8"?>
<!-- Generator: Adobe Illustrator 21.0.2, SVG Export Plug-In . SVG Version: 6.00 Build 0)  -->
<svg version="1.1" id="圖層_1" xmlns="http://www.w3.org/2000/svg" xmlns:xlink="http://www.w3.org/1999/xlink" x="0px" y="0px"
	 viewBox="0 0 271 256" style="enable-background:new 0 0 271 256;" xml:space="preserve">
<style type="text/css">
	.st0{fill:none;}
</style>
<!-- <path d="M93,10l3,6c2,2,3.7,3.3,5,4c0.7,2,0.7,4.3,0,7c-2,4.7-3.7,10.3-5,17c-0.7,8-1,19.7-1,35c3.3-1.3,5.3-1.3,6,0
	c0,3.3-2,5.7-6,7c-1.3,6-1.7,13.7-1,23c6.7,6,13.7,10,21,12c2,0.7,2.3,2,1,4c-2,3.3-5.3,3-10-1c-2.7-1.3-6.3-4-11-8
	c-1.3-2-2-3.3-2-4c0,5.3-0.3,14.3-1,27v48c-0.7,11.3,1,20.3,5,27c0.7,2.7,0,4.7-2,6c-2.7,1.3-4.7,1-6-1c-9.3-13.3-15.3-26.3-18-39
	c-0.7-2,0-2,2,0c2.7,5.3,6,10.7,10,16l1,1c3.3,2,5,1,5-3c0-18.7-0.3-33.3-1-44v-36c-12.7,20.7-29.3,35.7-50,45c-5.3,2.7-5.7,2-1-2
	c24-14,41-33,51-57c-0.7-0.7-0.7-2.7,0-6c0.7-2.7,1-4.7,1-6c-2.7,1.3-5.7,2.7-9,4c-11.3,4.7-19.3,8-24,10c-10.7,5.3-21.3,6.7-32,4
	c-2.7-0.7-2.3-1.3,1-2c8,1.3,29.3-6,64-22c-0.7-13.3-0.3-27.3,1-42c0-2,0.3-3.7,1-5c0.7-9.3,0.3-17-1-23c-1.3-1.3-1.7-2.3-1-3
	C89.7,9,91,9.3,93,10z M158,19c1.3,0,4.3-0.7,9-2c3.3-1.3,5.7-2.3,7-3c5.3-2.7,9.7-2.3,13,1c1.3,2,3.3,4,6,6c2,2,3.7,3.3,5,4
	c2.7,3.3,2,5.7-2,7c-3.3,0-5.3,1.3-6,4c-2.7,30-6,53-10,69c-0.7,2-1.7,3.3-3,4c-0.7,0-1-1-1-3c0-6.7-0.3-11.7-1-15
	c-6.7,2.7-11.3,3.3-14,2c-2-0.7-2-1.7,0-3c2.7,0,5-0.7,7-2c2.7-2.7,5.3-3.3,8-2c0.7,1.3,1.3,2,2,2s1.3-1,2-3c1.3-12.7,2.7-33.7,4-63
	c-0.7-3.3-2.3-4.7-5-4c-10.7,3.3-17.7,4.3-21,3C154.7,20.3,154.7,19.7,158,19z M163,61c0.7,0,2.3-0.7,5-2c0.7,0,1.3-0.3,2-1
	c2-1.3,4.3-1.7,7-1l2,2c0,0.7-0.3,1-1,1c-8.7,4.7-13.7,5.7-15,3C161,62.3,161,61.7,163,61z M194,138c0.7,0,2,0.3,4,1h2
	c1.3,2,2,3.3,2,4s-1,1-3,1c-2.7,0-4.7,1-6,3c-18.7,20-32,32.7-40,38c-4,2.7-4.3,2.3-1-1c11.3-10,23.3-22.3,36-37c2-2,2.7-4,2-6
	S190.7,138,194,138z M136,127c-4.7,2.7-10.3,2.7-17,0c-2.7-0.7-2.3-1.3,1-2h2c5.3-1.3,11-3,17-5c40-11.3,69-18,87-20
	c3.3,0.7,6.3-0.7,9-4c1.3-0.7,3.7-0.7,7,0c8.7,4.7,14.7,8,18,10c0.7,0.7,1,1.3,1,2c-0.7,0.7-1.3,1-2,1c-4,0.7-7.3-0.7-10-4
	c-4-2.7-9.3-3.7-16-3c-15.3,1.3-41,7.3-77,18c-1.3,3.3-3,6-5,8c4,4,11.3,5,22,3c22.7-2,37.3,0,44,6c7.3,6,12.3,13.7,15,23
	c1.3,6-0.3,9.3-5,10c-2,0-5,2-9,6c-14,18.7-35,33-63,43c-2.7,0.7-4.7,1-6,1c-1.3-0.7-1.3-1.7,0-3c1.3-0.7,0.7-1.7-2-3
	c-4.7-6-7.3-16.7-8-32c-0.7-4.7,0-4.7,2,0c1.3,12.7,6,22,14,28c1.3,3.3,4.3,4,9,2c26.7-10.7,45.3-26,56-46l1-1c4.7-8,5.3-13.7,2-17
	c-8.7-13.3-27.3-17.7-56-13c0.7,4,0,6.7-2,8c-3.3,2-7,5-11,9c-2,1.3-1.7,1.7,1,1s7.3-2.3,14-5c6-2.7,10.7-4.7,14-6
	c4.7-0.7,4.7,0,0,2c-34,13.3-51.3,22-52,26c-2,0.7-3,0.3-3-1c5.3-7.3,8.7-10.7,10-10c2.7,0.7,4.7-0.3,6-3c14.7-11.3,21-18.3,19-21
	c-4.7-0.7-9.3-2-14-4c-1.3,1.3-2.7,2-4,2c-2.7,2.7-5.3,4-8,4c-2.7,0-3-0.7-1-2c5.3-3.3,11-8,17-14c-2.7,0.7-6.3,2-11,4L136,127z
	 M159,68c-2.7,16.7-2,26.3,2,29c0.7,3.3,0.3,5-1,5c-3.3,0.7-5-0.3-5-3c-5.3-10.7-6.7-17.3-4-20l2-6c2-12,3-23,3-33c-0.7-2.7,0-3,2-1
	c2,3.3,3,6.7,3,10C161,51.7,160.3,58,159,68z"/> -->
<path class="pen line-yang-1" d="M32,104c4.3,0.2,8.5-1.3,12.5-2.7c17.9-6.6,35.8-13.1,53.6-19.7"/>
<path class="pen line-yang-2" d="M92.4,15.4c0.5,11.9-0.7,23.8-1.6,35.8c-2.9,39-1.7,78.1-0.5,117.2c0.5,15.5,1,31.2,5.2,46.2
	c-1.3-6.8-7.3-11.6-11.9-16.9c-3.8-4.4-6.9-9.5-9-14.9"/>
<path class="pen line-yang-3" d="M87.5,106.5c-7,22.9-24.7,42.3-46.9,51.4"/>
<path class="pen line-yang-4" d="M93.8,111.5c5.9,4.6,12.4,8.5,19.1,11.7"/>
<path class="pen line-yang-5" d="M157.6,42.7c0.7,7.3,0.5,14.6-0.5,21.8c-0.8,5.7-2.1,11.4-2.6,17.1c-0.4,5.8,0.1,11.8,2.8,16.9"/>
<path class="pen line-yang-6" d="M161.1,19.1c4.8,0.8,9.4-1.7,14-3.2s10.6-1.4,13.2,2.7c1.4,2.3,1.3,5.1,1.1,7.8c-1.7,24.6-5.3,49-10.7,73.1"/>
<path class="pen line-yang-7" d="M164.4,62.9c4.2,0.3,8.4-0.3,12.4-1.7"/>
<path class="pen line-yang-8" d="M164.4,91.1c3.3,0.1,6.6-1.2,9-3.5"/>
<path class="pen line-yang-9" d="M129.3,124.7c17.3-1.4,32.8-11.2,49.6-15.7c12.1-3.3,24.9-3.8,37.1-6.7c6.4-1.5,12.7-3.6,19.3-3.9
	c6.6-0.3,13.7,1.6,17.8,6.7"/>
<path class="pen line-yang-10" d="M153.2,121.7c0.2,1-0.4,1.9-1,2.7c-3.6,4.6-8.1,8.5-13.3,11.3"/>
<path class="pen line-yang-11" d="M152.4,131c14.7-0.8,29.6-0.2,44.2,1.8c11.3,1.6,23.8,5,29.2,14.9c1.2,2.1,2,4.5,2,7c0,2.4-0.8,4.8-1.8,7
	c-4.9,11.1-14.5,19.2-23.8,26.9c-13.6,11.3-27.8,22.9-45,26.8c-1.6,0.4-3.2,0.6-4.8,0.2c-2.1-0.6-3.6-2.6-4.7-4.5
	c-5.1-8.1-8.5-17.3-9.7-26.7"/>
<path class="pen line-yang-12" d="M164.3,137.3c-8.3,9.1-16.9,17.9-25.9,26.3c-0.3-2.1,1.6-3.7,3.4-4.9c6.7-4.4,14-7.6,21.4-10.8
	c3.5-1.5,7.1-3.1,10.6-4.6"/>
<path class="pen line-yang-13" d="M194.9,141.9c-10.9,13.7-23.4,26.1-37.2,36.9"/>
</svg>
