<?xml version="1.0" encoding="utf-8"?>
<!-- Generator: Adobe Illustrator 21.0.2, SVG Export Plug-In . SVG Version: 6.00 Build 0)  -->
<svg version="1.1" id="圖層_1" xmlns="http://www.w3.org/2000/svg" xmlns:xlink="http://www.w3.org/1999/xlink" x="0px" y="0px"
	 viewBox="0 0 275 256" style="enable-background:new 0 0 275 256;" xml:space="preserve">
<style type="text/css">
	.st0{fill:none;stroke:#000000;stroke-miterlimit:10;}
</style>
<!-- <path d="M139,112c0.7-2.7,2.3-3.3,5-2c4.7,1.3,9.3,3.7,14,7c2,3.3,1.7,5-1,5c-4,2-6,4.3-6,7c-4,30.7-1.3,58.7,8,84c-0.7,4-3,4.7-7,2
	c-2-3.3-4.7-6.3-8-9c-4.7-2-8.3-5-11-9c-2-1.3-1.7-2,1-2c12,6,17,6.3,15,1c-0.7-2.7-1.3-8-2-16c-0.7-6-1-10.3-1-13l-9,3
	c-7.3,1.3-13.3,2.3-18,3c0,10.7,0.7,21,2,31c0,4-1,6-3,6s-3.3-1.7-4-5c0-0.7-0.3-2.7-1-6c-0.7-2-0.7-3.3,0-4v-3c0.7-0.7,1.3-1.7,2-3
	c0.7-16,0.3-38.3-1-67c-0.7-2,0-1.7,2,1C122,117.7,129.7,114,139,112z M67,75c-0.7-2.7-0.3-3.3,1-2c6,4.7,8.7,7.7,8,9
	c-1.3,2-2.3,7.7-3,17v5c6-2.7,11.3-4.7,16-6c1.3,0.7,2,1.3,2,2c0.7,1.3,0.7,2,0,2l-18,12c-2,19.3-2.3,31.3-1,36c4-4,8.3-8,13-12
	c6-5.3,11.3-10.7,16-16c3.3-4,4-3.7,2,1c-18.7,22.7-36.7,41-54,55c-4.7,5.3-11.3,6.7-20,4c-3.3-0.7-3.3-1.3,0-2
	c6,1.3,17.7-6.3,35-23c0-8.7-0.3-13.7-1-15c-1.3-2-0.7-3.7,2-5c0.7-1.3,1.3-8,2-20c-9.3,4.7-16.7,7-22,7c-2,0.7-3.3,0.7-4,0
	c0-0.7,1-1.7,3-3c10-4.7,18-9,24-13V86C68,82,67.7,78.3,67,75z M144,123c-0.7-7.3-2.7-10-6-8c-1.3,1.3-3.3,2.7-6,4
	c-2,0.7-3.3,1.3-4,2c-4.7,1.3-8.3,3-11,5c0.7,1.3,1,8,1,20c8-4.7,15-7.7,21-9c1.3,0.7,1.7,1.3,1,2c-1.3,2-3.3,4.3-6,7
	c-3.3,1.3-5.3,2.7-6,4l-3,3v1c-2,0.7-2.3-0.3-1-3c0.7-2,0.7-3,0-3c-0.7-0.7-2.7-0.7-6,0c-0.7,9.3-0.3,16.7,1,22c0.7,0,2-0.3,4-1
	c5.3-2,9.7-4,13-6h1c2-1.3,5-1.7,9-1C144.7,147.3,144,134.3,144,123z M192,99c-0.7-2,0-2.3,2-1c7.3,8.7,11,13.3,11,14
	c-1.3,3.3-2.3,6.7-3,10s-0.7,7,0,11c0,36.7,3.3,65.7,10,87c0.7,2,0,3.3-2,4s-3.3,0.3-4-1c-1.3-1.3-2.7-3.3-4-6c-3.3-5.3-6-8.7-8-10
	l-3-3c-4-2-6.7-5-8-9c-2.7-3.3-2.3-3.7,1-1c8,6.7,13.3,10.3,16,11h3c0,0,0.3-0.3,1-1c-1.3-8.7-2.7-21-4-37c-2-17.3-3-33.7-3-49
	C197,112.7,195.3,106.3,192,99z M147,15c5.3-2,10.3-2.3,15-1c1.3,0.7,2.3,1.3,3,2c0,1.3-0.7,2-2,2c-5.3,0.7-14.3,13.3-27,38
	c-11.3,20.7-26.7,43.3-46,68c-3.3,3.3-3.7,3-1-1c20-28.7,39-60,57-94c4-8,4.3-11.7,1-11c-2,0-3-0.3-3-1S145,15.7,147,15z M157,30
	c9.3,1.3,15.7,5.3,19,12c12,20,26.7,41,44,63c2.7,4,6.3,5.7,11,5c8.7,0,19,1.3,31,4c4,2,4,2.7,0,2h-13h-12c-6.7,1.3-12.3-1-17-7
	c-9.3-11.3-19.3-24.3-30-39c-9.3-13.3-15.3-22.3-18-27s-8-8.3-16-11C154,31.3,154.3,30.7,157,30z M188,77c1.3,0.7,2,1.7,2,3
	c-0.7,1.3-1.7,2-3,2c-12,0.7-27.3,4.7-46,12c-5.3,2-11.3,1.7-18-1c-4-0.7-3.7-1.3,1-2c18.7-1.3,32-5.7,40-13c2-2.7,5-3.7,9-3
	C177,77,182,77.7,188,77z M89,49c1.3,0.7,3.3,1,6,1c2.7,0.7,5,1,7,1c2,2.7,1.7,4.3-1,5c-7.3-0.7-20.3,3-39,11
	c-6.7,2.7-13.3,3.3-20,2c-2,0-3-0.3-3-1s1-1.3,3-2c12-1.3,23.3-4.3,34-9c4.7-2,7.3-4,8-6C84.7,48.3,86.3,47.7,89,49z M174,137
	c4.7,9.3,7,19.7,7,31c-0.7,2-1.7,2.3-3,1c-3.3-6.7-5.7-10.7-7-12c-1.3-0.7-2-1.3-2-2s1-1.3,3-2c2,0,2-5,0-15
	C172,135.3,172.7,135,174,137z"/> -->
<path class="pen line-yu-1" d="M43.7,68.4c4.5,1,9.1-0.5,13.4-2.2c11.3-4.3,22.2-9.5,33.1-14.6c0.1-0.1,0.3-0.1,0.4-0.2"/>
<path class="pen line-yu-2" d="M46.3,124c14.8-5.5,28.8-13,41.6-22.3c-0.4,0.1-0.8,0.2-1.2,0.3"/>
<path class="pen line-yu-3" d="M70,77.9c-0.1,26-0.5,52.1-1.3,78.1"/>
<path class="pen line-yu-4" d="M36.9,182.3c25.8-15.8,48.5-36.5,66.6-60.8"/>
<path class="pen line-yu-5" d="M156.8,14.8c-20.2,35.8-42,70.6-65.4,104.4"/>
<path class="pen line-yu-6" d="M159,32.3c4.6-0.1,8.2,3.9,11,7.7c14.2,19.1,26.2,39.8,41.4,58c3.2,3.9,6.7,7.7,11.1,10.3
	c11.1,6.6,25.2,3.8,37.6,7"/>
<path class="pen line-yu-7" d="M127.1,92.8c6.8,1.9,14.1-0.3,20.8-2.5c10.4-3.4,20.9-6.8,31.3-10.2c-0.5,0.1-0.9,0.3-1.4,0.4"/>
<path class="pen line-yu-8" d="M116.2,126.1c-1.1,25.7-0.1,51.5,2.9,77"/>
<path class="pen line-yu-9" d="M119.4,122.2c5.1-2.3,10.3-4.6,15.4-6.9c3.1-1.4,7.5-2.4,9.2,0.5c0.5,0.9,0.6,2,0.7,3.1
	c2.2,29.3,4.3,58.6,6.5,87.9c-5.3-4.1-11.2-7.6-17.4-10.3"/>
<path class="pen line-yu-10" d="M118.9,148.8c5.6-3.5,11.5-6.4,17.7-8.6c-1.8,2.1-3.9,4-6.1,5.6"/>
<path class="pen line-yu-11" d="M120.7,172.4c8.2-0.7,16.3-2.3,24.1-4.8"/>
<path class="pen line-yu-12" d="M173.8,139.8c-0.9,8,0.1,16.3,3.1,23.8c-0.7-1-1.1-2.2-1.1-3.5"/>
<path class="pen line-yu-13" d="M196.6,106.2c1.2,37.9,5.4,75.7,12.6,112.9c-7.2-9-16.6-16.1-27.2-20.5"/>
</svg>
